<svg xmlns="http://www.w3.org/2000/svg" xmlns:xlink="http://www.w3.org/1999/xlink" width="100%" height="100%" viewBox="0 0  1330 800" preserveAspectRatio="xMinYMin meet" ><rect id="svgEditorBackground" x="0" y="0" width="1330" height="800" style="fill: none; stroke: none;"/><circle id="e3_circle" cx="444.000000" cy="387.000000" style="fill:lavender;stroke:black;stroke-width:1px" r="257.670000"/><path d="M104.888833,79.703638h-24c-4.419,0,-8,-3.581,-8,-8v-4.291c9.562,-5.534,16,-15.866,16,-27.709v-16c0,-17.673,-14.327,-32,-32,-32s-32,14.327,-32,32v16c0,11.843,6.438,22.174,16,27.709v4.291c0,4.419,-3.581,8,-8,8h-24c-8.836,0,-16,7.163,-16,16v14.222c0,5.4,4.378,9.778,9.778,9.778h108.445c5.4,0,9.778,-4.378,9.778,-9.778v-14.222c0,-8.837,-7.163,-16,-16,-16Z" style="fill:dimgray;stroke:black;vector-effect:non-scaling-stroke;stroke-width:1px" id="e8_shape" transform="matrix(2.53123 0 0 2.53123 300 237)"/></svg>